<svg width="32" height="32" viewBox="0 0 32 32" fill="none" xmlns="http://www.w3.org/2000/svg">
<path d="M27 22.142V9.85801C27.6824 9.68315 28.3064 9.33082 28.8086 8.8368C29.3108 8.34279 29.6733 7.72468 29.8593 7.04525C30.0454 6.36582 30.0483 5.64925 29.8679 4.96831C29.6874 4.28737 29.33 3.66631 28.8318 3.16819C28.3337 2.67007 27.7127 2.31264 27.0317 2.13217C26.3508 1.95171 25.6342 1.95465 24.9548 2.1407C24.2753 2.32674 23.6572 2.68926 23.1632 3.19145C22.6692 3.69364 22.3169 4.31762 22.142 5.00001H9.85801C9.68315 4.31762 9.33082 3.69364 8.8368 3.19145C8.34279 2.68926 7.72468 2.32674 7.04525 2.1407C6.36582 1.95465 5.64925 1.95171 4.96831 2.13217C4.28737 2.31264 3.66631 2.67007 3.16819 3.16819C2.67007 3.66631 2.31264 4.28737 2.13217 4.96831C1.95171 5.64925 1.95465 6.36582 2.1407 7.04525C2.32674 7.72468 2.68926 8.34279 3.19145 8.8368C3.69364 9.33082 4.31762 9.68315 5.00001 9.85801V22.142C4.31762 22.3169 3.69364 22.6692 3.19145 23.1632C2.68926 23.6572 2.32674 24.2753 2.1407 24.9548C1.95465 25.6342 1.95171 26.3508 2.13217 27.0317C2.31264 27.7127 2.67007 28.3337 3.16819 28.8318C3.66631 29.33 4.28737 29.6874 4.96831 29.8679C5.64925 30.0483 6.36582 30.0454 7.04525 29.8593C7.72468 29.6733 8.34279 29.3108 8.8368 28.8086C9.33082 28.3064 9.68315 27.6824 9.85801 27H22.142C22.3169 27.6824 22.6692 28.3064 23.1632 28.8086C23.6572 29.3108 24.2753 29.6733 24.9548 29.8593C25.6342 30.0454 26.3508 30.0483 27.0317 29.8679C27.7127 29.6874 28.3337 29.33 28.8318 28.8318C29.33 28.3337 29.6874 27.7127 29.8679 27.0317C30.0483 26.3508 30.0454 25.6342 29.8593 24.9548C29.6733 24.2753 29.3108 23.6572 28.8086 23.1632C28.3064 22.6692 27.6824 22.3169 27 22.142ZM26 4.00001C26.3956 4.00001 26.7823 4.11731 27.1112 4.33707C27.4401 4.55684 27.6964 4.86919 27.8478 5.23465C27.9991 5.6001 28.0388 6.00223 27.9616 6.39019C27.8844 6.77816 27.6939 7.13452 27.4142 7.41423C27.1345 7.69393 26.7782 7.88441 26.3902 7.96158C26.0022 8.03875 25.6001 7.99915 25.2346 7.84777C24.8692 7.6964 24.5568 7.44005 24.3371 7.11115C24.1173 6.78226 24 6.39558 24 6.00001C24.0005 5.46974 24.2114 4.96134 24.5864 4.58638C24.9613 4.21143 25.4697 4.00054 26 4.00001ZM4.00001 6.00001C4.00001 5.60445 4.11731 5.21777 4.33707 4.88887C4.55684 4.55997 4.86919 4.30363 5.23465 4.15225C5.6001 4.00088 6.00223 3.96127 6.39019 4.03844C6.77816 4.11561 7.13452 4.30609 7.41423 4.5858C7.69393 4.8655 7.88441 5.22187 7.96158 5.60983C8.03875 5.99779 7.99915 6.39993 7.84777 6.76538C7.6964 7.13083 7.44005 7.44319 7.11115 7.66295C6.78226 7.88272 6.39558 8.00001 6.00001 8.00001C5.46974 7.99948 4.96134 7.7886 4.58638 7.41364C4.21143 7.03868 4.00054 6.53028 4.00001 6.00001ZM6.00001 28C5.60445 28 5.21777 27.8827 4.88887 27.663C4.55997 27.4432 4.30363 27.1308 4.15225 26.7654C4.00088 26.3999 3.96127 25.9978 4.03844 25.6098C4.11561 25.2219 4.30609 24.8655 4.5858 24.5858C4.8655 24.3061 5.22187 24.1156 5.60983 24.0384C5.99779 23.9613 6.39993 24.0009 6.76538 24.1523C7.13083 24.3036 7.44319 24.56 7.66295 24.8889C7.88272 25.2178 8.00001 25.6045 8.00001 26C7.99948 26.5303 7.7886 27.0387 7.41364 27.4136C7.03868 27.7886 6.53028 27.9995 6.00001 28ZM22.142 25H9.85801C9.67889 24.3125 9.31961 23.6852 8.81722 23.1828C8.31484 22.6804 7.68754 22.3211 7.00001 22.142V9.85801C7.68749 9.67879 8.31474 9.31948 8.81711 8.81711C9.31948 8.31474 9.67879 7.68749 9.85801 7.00001H22.142C22.3211 7.68754 22.6804 8.31484 23.1828 8.81722C23.6852 9.31961 24.3125 9.67889 25 9.85801V22.142C24.3124 22.321 23.6851 22.6803 23.1827 23.1827C22.6803 23.6851 22.321 24.3124 22.142 25ZM26 28C25.6045 28 25.2178 27.8827 24.8889 27.663C24.56 27.4432 24.3036 27.1308 24.1523 26.7654C24.0009 26.3999 23.9613 25.9978 24.0384 25.6098C24.1156 25.2219 24.3061 24.8655 24.5858 24.5858C24.8655 24.3061 25.2219 24.1156 25.6098 24.0384C25.9978 23.9613 26.3999 24.0009 26.7654 24.1523C27.1308 24.3036 27.4432 24.56 27.663 24.8889C27.8827 25.2178 28 25.6045 28 26C27.9992 26.5302 27.7883 27.0385 27.4134 27.4134C27.0385 27.7883 26.5302 27.9992 26 28Z" fill="black"/>
</svg>
