<svg width="31" height="24" viewBox="0 0 31 24" fill="none" xmlns="http://www.w3.org/2000/svg">
<path d="M24.1 10.9H4.30005V3.75C4.30223 3.02132 4.59266 2.32311 5.10791 1.80786C5.62316 1.29261 6.32137 1.00218 7.05005 1H23.55C24.2787 1.00218 24.9769 1.29261 25.4922 1.80786C26.0074 2.32311 26.2979 3.02132 26.3 3.75V10.9H24.1Z" stroke="black" stroke-linecap="round" stroke-linejoin="round"/>
<path d="M1 23V15.3C1.00345 14.1341 1.46812 13.017 2.29254 12.1926C3.11695 11.3681 4.23411 10.9035 5.4 10.9H25.2C26.3659 10.9035 27.483 11.3681 28.3075 12.1926C29.1319 13.017 29.5966 14.1341 29.6 15.3V23" stroke="black" stroke-linecap="round" stroke-linejoin="round"/>
<path d="M1 23V22.45C1.00127 22.0128 1.17552 21.5938 1.48468 21.2847C1.79384 20.9755 2.21278 20.8013 2.65 20.8H27.95C28.3872 20.8013 28.8062 20.9755 29.1153 21.2847C29.4245 21.5938 29.5987 22.0128 29.6 22.45V23" stroke="black" stroke-linecap="round" stroke-linejoin="round"/>
<path d="M5.40002 10.9V9.79998C5.40166 9.217 5.63397 8.65837 6.04619 8.24614C6.45842 7.83392 7.01705 7.60161 7.60002 7.59998H13.1C13.683 7.60161 14.2416 7.83392 14.6539 8.24614C15.0661 8.65837 15.2984 9.217 15.3 9.79998V10.9" stroke="black" stroke-linecap="round" stroke-linejoin="round"/>
<path d="M15.3 10.9V9.79998C15.3017 9.217 15.534 8.65837 15.9462 8.24614C16.3584 7.83392 16.9171 7.60161 17.5 7.59998H23C23.583 7.60161 24.1417 7.83392 24.5539 8.24614C24.9661 8.65837 25.1984 9.217 25.2 9.79998V10.9" stroke="black" stroke-linecap="round" stroke-linejoin="round"/>
</svg>
