<svg width="25" height="30" viewBox="0 0 25 30" fill="none" xmlns="http://www.w3.org/2000/svg">
<path d="M0 28.5316H25M2.63713 28.5316V3.21519C2.63713 2.79325 2.94332 2.34993 3.79747 2.37131H6.32911V1H18.6709V2.37131H21.4135C22.0814 2.44541 22.271 2.64918 22.3629 3.21519V28.5316H2.63713Z" stroke="#f37021" stroke-width="1.5"/>
<rect x="5.45801" y="6.45782" width="1.95359" height="2.79747" rx="0.5" stroke="#f37021"/>
<rect x="11.5762" y="6.45782" width="1.95359" height="2.79747" rx="0.5" stroke="#f37021"/>
<rect x="17.6943" y="6.45782" width="1.95359" height="2.79747" rx="0.5" stroke="#f37021"/>
<rect x="17.6943" y="13.6308" width="1.95359" height="2.79747" rx="0.5" stroke="#f37021"/>
<rect x="11.5762" y="13.6308" width="1.95359" height="2.79747" rx="0.5" stroke="#f37021"/>
<rect x="5.45801" y="13.6308" width="1.95359" height="2.79747" rx="0.5" stroke="#f37021"/>
<rect x="5.45801" y="21.2257" width="1.95359" height="2.79747" rx="0.5" stroke="#f37021"/>
<rect x="17.6943" y="21.2257" width="1.95359" height="2.79747" rx="0.5" stroke="#f37021"/>
<path d="M10.021 21.7806V28.5316H14.9788V21.7806C14.8915 21.0457 14.8868 20.8376 14.1349 20.6202H11.0758C10.326 20.7721 10.1456 21.0716 10.021 21.7806Z" stroke="#f37021" stroke-width="1.5"/>
</svg>
