<svg width="27" height="27" viewBox="0 0 27 27" fill="none" xmlns="http://www.w3.org/2000/svg">
<path d="M3.9377 11.1196L1.41075 12.7742C0.735546 13.6238 0.878267 14.0513 1.94677 14.739L12.1311 20.7367C13.4158 21.3995 14.1095 21.2723 15.3217 20.5041C15.3217 20.5041 24.0512 15.3853 25.1743 14.739C26.2974 14.0926 26.2463 13.6015 25.1743 12.7742C24.1022 11.9469 22.877 11.223 22.877 11.223" stroke="#f37021" stroke-width="1.5"/>
<path d="M3.93779 15.9282L1.41319 17.6086C0.737987 18.4582 0.880709 18.8857 1.94921 19.5734L12.1336 25.5712C13.4183 26.2339 14.1119 26.1068 15.3242 25.3385C15.3242 25.3385 24.0536 20.2197 25.1767 19.5734C26.2998 18.9271 26.2488 18.4359 25.1767 17.6086C24.1047 16.7813 22.8795 16.0574 22.8795 16.0574" stroke="#f37021" stroke-width="1.5"/>
<path d="M2.04881 7.47442L12.1821 1.52834C13.2333 0.780699 13.8942 0.868435 15.143 1.52834L24.97 7.47442C26.3609 8.34252 26.3112 8.88945 24.97 9.95625L15.143 15.8765C13.9857 16.7961 13.3394 16.8819 12.1821 16.2126L2.04881 9.95625C0.790544 8.98702 0.558897 8.44365 2.04881 7.47442Z" stroke="#f37021" stroke-width="1.5"/>
</svg>
