<svg width="16" height="20" viewBox="0 0 16 20" fill="none" xmlns="http://www.w3.org/2000/svg">
<path d="M8.0023 5.80847C7.25345 5.80847 6.53528 6.11212 6.00576 6.65262C5.47625 7.19311 5.17877 7.92618 5.17877 8.69056C5.17877 9.45494 5.47625 10.188 6.00576 10.7285C6.53528 11.269 7.25345 11.5726 8.0023 11.5726C8.75114 11.5726 9.46932 11.269 9.99883 10.7285C10.5283 10.188 10.8258 9.45494 10.8258 8.69056C10.8258 7.92618 10.5283 7.19311 9.99883 6.65262C9.46932 6.11212 8.75114 5.80847 8.0023 5.80847ZM6.35524 8.69056C6.35524 8.24467 6.52877 7.81705 6.83765 7.50176C7.14654 7.18647 7.56547 7.00934 8.0023 7.00934C8.43912 7.00934 8.85806 7.18647 9.16694 7.50176C9.47583 7.81705 9.64935 8.24467 9.64935 8.69056C9.64935 9.13645 9.47583 9.56407 9.16694 9.87936C8.85806 10.1946 8.43912 10.3718 8.0023 10.3718C7.56547 10.3718 7.14654 10.1946 6.83765 9.87936C6.52877 9.56407 6.35524 9.13645 6.35524 8.69056Z" fill="#717171"/>
<path d="M14.1176 13.7341L9.37035 18.879C9.19436 19.0698 8.98201 19.2218 8.74635 19.3257C8.51069 19.4296 8.2567 19.4832 8 19.4832C7.7433 19.4832 7.48931 19.4296 7.25365 19.3257C7.01799 19.2218 6.80564 19.0698 6.62965 18.879L1.88236 13.7341H1.90024L1.89224 13.7245L1.88236 13.7125C0.663867 12.2413 -0.00322667 10.3763 1.17354e-05 8.4498C1.17354e-05 3.93944 3.58165 0.283203 8 0.283203C12.4183 0.283203 16 3.93944 16 8.4498C16.0032 10.3763 15.3361 12.2413 14.1176 13.7125L14.1078 13.7245L14.0998 13.7341H14.1176ZM13.2033 12.9563C14.2518 11.699 14.8263 10.101 14.8235 8.4498C14.8235 4.60285 11.7685 1.48417 8 1.48417C4.23153 1.48417 1.17648 4.60285 1.17648 8.4498C1.17648 10.1696 1.78542 11.7414 2.79671 12.9563L2.94165 13.1307L7.48612 18.0552C7.55211 18.1267 7.63175 18.1837 7.72012 18.2227C7.80849 18.2616 7.90374 18.2817 8 18.2817C8.09626 18.2817 8.19151 18.2616 8.27988 18.2227C8.36825 18.1837 8.44789 18.1267 8.51388 18.0552L13.0583 13.1307L13.2033 12.9563Z" fill="#717171"/>
</svg>
