<svg width="27" height="31" viewBox="0 0 27 31" fill="none" xmlns="http://www.w3.org/2000/svg">
<path d="M2.20187 13.2127C2.17205 9.04251 3.61141 6.274 5.6747 4.53092C7.76616 2.76403 10.6062 1.96155 13.5003 1.96155C16.3936 1.96155 19.2172 2.76362 21.3006 4.52985C23.3574 6.27352 24.798 9.04477 24.798 13.2196C24.798 17.286 22.393 21.3393 19.623 24.4468C18.2519 25.9849 16.8277 27.2498 15.6446 28.1227C15.052 28.5599 14.5341 28.8883 14.1252 29.1025C13.7425 29.3029 13.55 29.3519 13.5079 29.3627C13.5042 29.3636 13.5017 29.3642 13.5003 29.3647C13.4989 29.3642 13.4963 29.3636 13.4926 29.3626C13.4503 29.3517 13.259 29.3027 12.8791 29.1031C12.472 28.8891 11.9564 28.5609 11.3662 28.1238C10.188 27.251 8.76939 25.9862 7.40179 24.4478C4.63952 21.3404 2.23098 17.284 2.20187 13.2127ZM8.58967 13.2196C8.58967 15.92 10.7968 18.0976 13.5003 18.0976C16.2037 18.0976 18.4109 15.92 18.4109 13.2196C18.4109 10.5191 16.2037 8.3415 13.5003 8.3415C10.7968 8.3415 8.58967 10.5191 8.58967 13.2196Z" stroke="#F37021" stroke-width="2.5"/>
</svg>
