<svg width="1512" height="982" viewBox="0 0 1512 982" fill="none" xmlns="http://www.w3.org/2000/svg" xmlns:xlink="http://www.w3.org/1999/xlink">
<rect width="1512" height="982" fill="url(#pattern0)"/>
<path d="M1055.41 249.029L1044.39 239.634L1013.94 248.057V257.775L1005.19 260.691L989.643 247.733L961.782 254.86V271.058L942.669 276.889L932.95 268.79L902.175 276.889L913.513 286.931V294.382L922.584 301.833L911.893 522.447L926.471 519.532L931.007 525.039L939.753 523.095V533.786L969.557 560.35L968.586 581.083L989.643 602.465L1104.97 565.857L1127 330.341L1111.13 316.411H1109.51L1109.18 320.623L1106.91 321.271L1103.35 318.031L1087.8 322.89L1083.59 318.679V313.172L1063.18 297.298L1065.45 264.578L1062.53 262.311V258.747H1058.97V256.156H1055.41V249.029Z" fill="#28FC31" fill-opacity="0.26" stroke="black"/>
<path d="M770.648 366.624L726.266 326.13L756.394 318.679L763.521 326.13V334.877L777.128 331.313V309.284L837.383 293.086L848.074 303.453V305.721L868.159 301.185L868.807 285.635L901.527 276.889L913.189 287.255V294.382L922.26 302.157L911.569 522.447V531.194L907.358 532.49L905.09 582.703L879.862 590.802L866.863 593.07L847.426 586.915L835.116 590.802L830.256 585.619L816.974 590.802V595.985L768.057 612.831L770.648 366.624Z" fill="#28FC31" fill-opacity="0.26" stroke="black"/>
<path d="M526.061 396.429L525.413 374.724L562.02 365.653L571.739 375.371L572.387 378.935L596.684 373.104V356.582L632.967 346.539L642.686 356.906V364.357L646.897 369.54L645.601 343.624L676.053 335.201L687.715 347.511V337.145L725.942 326.454L770 366.949L767.409 613.155L716.871 627.085L701.97 630.649L696.462 632.269L694.842 637.128L665.362 645.875V656.241L638.15 664.34L632.967 659.157V653.002L627.136 645.227L619.037 648.142H616.121L612.558 484.221L611.262 483.454V475.798L596.684 459.276L592.148 460.572L592.472 463.488L576.922 466.727L577.57 469.319L574.331 470.291L573.683 468.023H573.035H571.739L568.824 462.192H567.204L566.88 451.825L563.64 449.557L563.316 441.135L551.654 430.12L550.682 426.557V411.331L543.555 403.556L536.752 396.429L528.005 398.372L526.061 396.429Z" fill="#28FC31" fill-opacity="0.26" stroke="black"/>
<path d="M393.421 436.061L392.851 424.086L399.123 422.946V418.384L419.078 412.681L422.499 416.103L488.638 397.855V395.004L509.164 389.302L513.725 395.574L517.639 394.809L518.287 392.153H521.708L527.979 398.996L536.532 396.715L550.216 411.541V426.937L550.786 427.507L551.356 430.359L562.759 441.193L563.329 449.747L566.18 452.028L566.75 462.862H568.461L571.312 468.565H573.022L574.163 470.846L578.154 469.705L577.583 467.424L592.978 464.003V461.152L596.399 460.011L610.653 475.978V483.961L611.793 484.531L618.065 730.304L462.411 779.345L452.718 762.808L444.165 767.37L431.622 750.262L426.49 681.834L423.069 685.826L420.219 686.966L409.956 670.429L390 437.202L393.421 436.061Z" fill="#28FC31" fill-opacity="0.26" stroke="black"/>
<defs>
<pattern id="pattern0" patternContentUnits="objectBoundingBox" width="1" height="1">
<use xlink:href="#image0_13_3" transform="translate(-0.279337 -0.0682348) scale(0.000504652 0.000777019)"/>
</pattern>
</defs>
</svg>
